<svg width="24" height="25" viewBox="0 0 24 25" fill="none" xmlns="http://www.w3.org/2000/svg">
<path d="M0 12.5C0 5.87258 5.37258 0.5 12 0.5C18.6274 0.5 24 5.87258 24 12.5C24 19.1274 18.6274 24.5 12 24.5C5.37258 24.5 0 19.1274 0 12.5Z" fill="#625DF5"/>
<path fill-rule="evenodd" clip-rule="evenodd" d="M9.20455 10.25H9.99253L10.2618 9.50946L10.4482 8.99685C10.5021 8.84865 10.643 8.75 10.8006 8.75H13.1994C13.357 8.75 13.4979 8.84865 13.5518 8.99685L13.7382 9.50946L14.0075 10.25H14.7955H15C15.6213 10.25 16.125 10.7537 16.125 11.375V14.75C16.125 15.3713 15.6213 15.875 15 15.875H9C8.37868 15.875 7.875 15.3713 7.875 14.75V11.375C7.875 10.7537 8.37868 10.25 9 10.25H9.20455ZM10.8006 7.625C10.1699 7.625 9.60651 8.0196 9.39095 8.61238L9.20455 9.125H9C7.75736 9.125 6.75 10.1324 6.75 11.375V14.75C6.75 15.9926 7.75736 17 9 17H15C16.2426 17 17.25 15.9926 17.25 14.75V11.375C17.25 10.1324 16.2426 9.125 15 9.125H14.7955L14.609 8.61239C14.3935 8.0196 13.8301 7.625 13.1994 7.625H10.8006ZM13.125 12.875C13.125 13.4963 12.6213 14 12 14C11.3787 14 10.875 13.4963 10.875 12.875C10.875 12.2537 11.3787 11.75 12 11.75C12.6213 11.75 13.125 12.2537 13.125 12.875ZM14.25 12.875C14.25 14.1176 13.2426 15.125 12 15.125C10.7574 15.125 9.75 14.1176 9.75 12.875C9.75 11.6324 10.7574 10.625 12 10.625C13.2426 10.625 14.25 11.6324 14.25 12.875Z" fill="white"/>
</svg>
