<svg width="16.000000" height="16.000000" viewBox="0 0 16 16" fill="none" xmlns="http://www.w3.org/2000/svg" xmlns:xlink="http://www.w3.org/1999/xlink">
	<desc>
			Created with Pixso.
	</desc>
	<defs>
		<clipPath id="clip4_66787">
			<rect width="16.000000" height="16.000000" fill="white" fill-opacity="0"/>
		</clipPath>
	</defs>
	<g clip-path="url(#clip4_66787)">
		<path d="M2.46973 4.71973C2.3291 4.86035 2.25 5.05127 2.25 5.25C2.25 5.44873 2.3291 5.63965 2.46973 5.78027L5.46973 8.78027C5.7627 9.07324 6.2373 9.07324 6.53027 8.78027C6.82324 8.4873 6.82324 8.0127 6.53027 7.71973L4.81055 6L9 6C10.7949 6 12.25 7.45508 12.25 9.25C12.25 11.0449 10.7949 12.5 9 12.5L8 12.5C7.58594 12.5 7.25 12.8359 7.25 13.25C7.25 13.6641 7.58594 14 8 14L9 14C11.6235 14 13.75 11.8735 13.75 9.25C13.75 6.62646 11.6235 4.5 9 4.5L4.81055 4.5L6.53027 2.78027C6.82324 2.4873 6.82324 2.0127 6.53027 1.71973C6.2373 1.42676 5.7627 1.42676 5.46973 1.71973L2.46973 4.71973Z" fill="#000000" fill-opacity="1.000000" fill-rule="evenodd"/>
	</g>
</svg>
