<svg width="9.500000" height="9.500000" viewBox="0 0 9.5 9.5" fill="none" xmlns="http://www.w3.org/2000/svg" xmlns:xlink="http://www.w3.org/1999/xlink">
	<desc>
			Created with Pixso.
	</desc>
	<defs/>
	<path id="icon" d="M0.219727 0.219727C0.512695 -0.0732422 0.987305 -0.0732422 1.28027 0.219727L4.75 3.68933L8.21973 0.219727C8.5127 -0.0732422 8.9873 -0.0732422 9.28027 0.219727C9.57324 0.512573 9.57324 0.987427 9.28027 1.28027L5.81055 4.75L9.28027 8.21973C9.57324 8.51257 9.57324 8.98743 9.28027 9.28027C8.9873 9.57324 8.5127 9.57324 8.21973 9.28027L4.75 5.81067L1.28027 9.28027C0.987305 9.57324 0.512695 9.57324 0.219727 9.28027C-0.0732422 8.98743 -0.0732422 8.51257 0.219727 8.21973L3.68945 4.75L0.219727 1.28027C-0.0732422 0.987427 -0.0732422 0.512573 0.219727 0.219727Z" fill="#000000" fill-opacity="1.000000" fill-rule="evenodd"/>
</svg>
