<svg width="12.250000" height="12.250000" viewBox="0 0 12.25 12.25" fill="none" xmlns="http://www.w3.org/2000/svg" xmlns:xlink="http://www.w3.org/1999/xlink">
	<desc>
			Created with Pixso.
	</desc>
	<defs/>
	<path id="icon" d="M10.9375 6.125C10.9375 8.78271 8.7829 10.9375 6.125 10.9375C3.4671 10.9375 1.3125 8.78271 1.3125 6.125C1.3125 3.46729 3.4671 1.3125 6.125 1.3125C8.7829 1.3125 10.9375 3.46729 10.9375 6.125ZM12.25 6.125C12.25 9.50781 9.50775 12.25 6.125 12.25C2.74225 12.25 0 9.50781 0 6.125C0 2.74219 2.74225 0 6.125 0C9.50775 0 12.25 2.74219 12.25 6.125ZM4.83905 3.91113C4.58276 3.65479 4.16724 3.65479 3.91095 3.91113C3.65466 4.16748 3.65466 4.58252 3.91095 4.83887L5.1969 6.125L3.91095 7.41113C3.65466 7.66748 3.65466 8.08252 3.91095 8.33887C4.16724 8.59521 4.58276 8.59521 4.83905 8.33887L6.125 7.05322L7.41095 8.33887C7.66724 8.59521 8.08276 8.59521 8.33905 8.33887C8.59534 8.08252 8.59534 7.66748 8.33905 7.41113L7.0531 6.125L8.33905 4.83887C8.59534 4.58252 8.59534 4.16748 8.33905 3.91113C8.08276 3.65479 7.66724 3.65479 7.41095 3.91113L6.125 5.19678L4.83905 3.91113Z" fill="#FB3939" fill-opacity="1.000000" fill-rule="evenodd"/>
</svg>
