<svg width="16.000000" height="16.000000" viewBox="0 0 16 16" fill="none" xmlns="http://www.w3.org/2000/svg" xmlns:xlink="http://www.w3.org/1999/xlink">
	<desc>
			Created with Pixso.
	</desc>
	<defs>
		<clipPath id="clip4_68788">
			<rect id="circle-xmark" width="16.000004" height="16.000004" fill="white" fill-opacity="0"/>
		</clipPath>
	</defs>
	<g clip-path="url(#clip4_68788)">
		<path id="icon" d="M13.5 8C13.5 11.0376 11.0376 13.5 8 13.5C4.9624 13.5 2.5 11.0376 2.5 8C2.5 4.9624 4.9624 2.5 8 2.5C11.0376 2.5 13.5 4.9624 13.5 8ZM15 8C15 11.8662 11.866 15 8 15C4.13403 15 1 11.8662 1 8C1 4.13379 4.13403 1 8 1C11.866 1 15 4.13379 15 8ZM6.53027 5.46973C6.23743 5.17676 5.76257 5.17676 5.46973 5.46973C5.17676 5.7627 5.17676 6.2373 5.46973 6.53027L6.93933 8L5.46973 9.46973C5.17676 9.7627 5.17676 10.2373 5.46973 10.5303C5.76257 10.8232 6.23743 10.8232 6.53027 10.5303L8 9.06055L9.46973 10.5303C9.76257 10.8232 10.2374 10.8232 10.5303 10.5303C10.8232 10.2373 10.8232 9.7627 10.5303 9.46973L9.06067 8L10.5303 6.53027C10.8232 6.2373 10.8232 5.7627 10.5303 5.46973C10.2374 5.17676 9.76257 5.17676 9.46973 5.46973L8 6.93945L6.53027 5.46973Z" fill="#ABABAB" fill-opacity="1.000000" fill-rule="evenodd"/>
	</g>
</svg>
