<svg width="20" height="20" viewBox="0 0 20 20" fill="none" xmlns="http://www.w3.org/2000/svg">
<path fill-rule="evenodd" clip-rule="evenodd" d="M10 18.75C14.8325 18.75 18.75 14.8325 18.75 10C18.75 5.16751 14.8325 1.25 10 1.25C5.16751 1.25 1.25 5.16751 1.25 10C1.25 14.8325 5.16751 18.75 10 18.75ZM5.82286 10.7305C5.57878 10.4864 5.57878 10.0907 5.82286 9.84661C6.06694 9.60253 6.46266 9.60253 6.70674 9.84661L8.91645 12.0563L13.7778 7.19496C14.0219 6.95088 14.4176 6.95088 14.6617 7.19496C14.9058 7.43904 14.9058 7.83477 14.6617 8.07884L9.35839 13.3821C9.11432 13.6262 8.71859 13.6262 8.47451 13.3821L5.82286 10.7305Z" fill="#36C4A0"/>
</svg>
