<svg width="84.000000" height="80.000000" viewBox="0 0 84 80" fill="none" xmlns="http://www.w3.org/2000/svg" xmlns:xlink="http://www.w3.org/1999/xlink">
	<desc>
			Created with Pixso.
	</desc>
	<defs>
		<radialGradient id="paint_radial_5914_93333_0" cx="0.000000" cy="0.000000" r="1.000000" gradientUnits="userSpaceOnUse" gradientTransform="translate(41.5118 40) rotate(0) scale(40.7672 40.7583)">
			<stop offset="0.500000" stop-color="#FDE030"/>
			<stop offset="0.920000" stop-color="#F7C02B"/>
			<stop offset="1.000000" stop-color="#F4A223"/>
		</radialGradient>
	</defs>
	<path id="Vector" d="M41.5117 80C21.543 80 0 67.4775 0 40C0 12.5225 21.543 0 41.5117 0C52.6055 0 62.8403 3.64941 70.4268 10.3042C78.6577 17.603 83.0234 27.9067 83.0234 40C83.0234 52.0933 78.6577 62.3257 70.4268 69.6245C62.8403 76.2793 52.5337 80 41.5117 80Z" fill="url(#paint_radial_5914_93333_0)" fill-opacity="1.000000" fill-rule="nonzero"/>
	<path id="Vector" d="M76.708 16C80.5522 22.1753 82.5571 29.5283 82.5571 37.7065C82.5571 49.8418 78.1577 60.1099 69.8638 67.4341C62.2188 74.1118 51.833 77.8457 40.7261 77.8457C27.7007 77.8457 14.041 72.5684 5.97754 61.3735C13.7378 74.0547 28.3354 80 42.1685 80C53.2754 80 63.6611 76.2661 71.3062 69.5884C79.6001 62.2642 83.9995 51.9961 83.9995 39.8608C83.9995 30.7129 81.4971 22.5845 76.708 16Z" fill="#EB8F00" fill-opacity="1.000000" fill-rule="nonzero"/>
	<path id="Vector" d="M33.998 63L50.0024 63" stroke="#35220B" stroke-opacity="1.000000" stroke-width="5.000000" stroke-linejoin="round" stroke-linecap="round"/>
	<path id="Vector" d="M33.0835 40.6729L32.9365 40.8037L32.5698 41.1309C32.4229 41.2617 32.2764 41.3271 32.0562 41.5234C31.8213 41.6934 31.5796 41.8438 31.3228 41.981C31.0293 42.1118 30.7358 42.3081 30.4424 42.439C30.1489 42.5698 29.7817 42.7007 29.415 42.8315C29.0557 42.9492 28.689 43.0347 28.3145 43.0933C27.9258 43.1523 27.5371 43.1719 27.1406 43.1587L26.4805 43.1587C26.3335 43.1587 26.1138 43.0933 25.9668 43.0933C25.5928 43.0347 25.2261 42.9492 24.8662 42.8315C24.5068 42.7402 24.1621 42.6094 23.8394 42.439C23.5312 42.3081 23.2378 42.1577 22.959 41.981C22.4453 41.6543 22.0049 41.3271 21.7114 41.1309L21.2715 40.7383L21.1245 40.6074C20.1782 39.8486 18.7622 39.7959 17.75 40.4766C17.0381 40.9736 16.7959 41.8374 17.1631 42.5698L17.2363 42.7661C17.3169 42.9492 17.4199 43.1196 17.5298 43.2896C17.9771 43.9634 18.52 44.5786 19.144 45.1216C19.5767 45.501 20.0464 45.854 20.5376 46.168C21.1172 46.5278 21.7261 46.8354 22.3721 47.084C23.0762 47.3721 23.8174 47.5879 24.5728 47.7383C24.9399 47.8037 25.3799 47.8691 25.8203 47.9346C26.04 47.9346 26.3335 48 26.4072 48L26.9941 48C27.8086 48 28.6152 47.9346 29.415 47.8037C30.1782 47.6665 30.9116 47.4438 31.6162 47.1494C32.2617 46.9009 32.8706 46.5933 33.4502 46.2334C33.9785 45.9521 34.4478 45.5991 34.8442 45.187C35.2036 44.8926 35.5264 44.5654 35.7979 44.2056C35.9448 44.0747 36.0181 43.8784 36.1646 43.7476C36.3115 43.6167 36.3848 43.4858 36.458 43.355C36.583 43.1982 36.6855 43.0215 36.7515 42.8315L36.8252 42.7007C37.2798 41.7852 36.8105 40.7056 35.7832 40.2998C35.6953 40.2671 35.5996 40.2344 35.5044 40.2148C34.668 39.9072 33.707 40.0903 33.0835 40.6729Z" fill="#422B0D" fill-opacity="1.000000" fill-rule="nonzero"/>
	<path id="Vector" d="M64.8594 40.7402L64.7139 40.8711C64.5981 40.9893 64.4746 41.1011 64.3442 41.1997L63.8438 41.5737C63.6333 41.7183 63.3936 41.8755 63.1182 42.0332C62.8423 42.1909 62.5596 42.3418 62.2476 42.4863C61.9282 42.6304 61.5947 42.7554 61.2534 42.8604C60.8979 42.9585 60.5356 43.0376 60.1655 43.103C59.7881 43.1558 59.4111 43.1821 59.0264 43.1821L58.6855 43.1821C58.4971 43.1821 58.4604 43.1821 58.3882 43.1821L57.8804 43.123C57.5103 43.0571 57.1475 42.9785 56.792 42.8799C56.4438 42.7617 56.1099 42.624 55.7837 42.4663C55.4717 42.3218 55.1816 42.1646 54.9131 42.0137C54.4849 41.7573 54.0859 41.4688 53.709 41.1538L53.252 40.7729L53.0703 40.6089C52.1416 39.8408 50.7417 39.7949 49.7549 40.4971C49.0366 40.9961 48.7974 41.8887 49.189 42.6304L49.2979 42.8276C49.3921 43.0176 49.501 43.2017 49.6172 43.3789C50.3643 44.5078 51.3799 45.4727 52.5845 46.2144C53.1572 46.5757 53.7666 46.8843 54.4053 47.1333C55.1162 47.416 55.856 47.6392 56.6177 47.79C57.0171 47.8555 57.3867 47.9214 57.873 47.9604C58.0977 47.9604 58.3589 48 58.4751 48L59.041 48C59.8535 47.9868 60.6587 47.9146 61.4565 47.77C62.2183 47.6191 62.9585 47.396 63.6694 47.1138C64.3076 46.8643 64.917 46.5557 65.4902 46.1948C66.3901 45.6436 67.188 44.9609 67.8481 44.1797L68.1963 43.7397L68.4863 43.3262C68.5952 43.1689 68.6895 42.998 68.7695 42.8208L68.8491 42.6567C69.2847 41.7183 68.791 40.6353 67.7539 40.2412C67.6812 40.2148 67.6089 40.1885 67.5361 40.1753C66.6001 39.8804 65.5557 40.1035 64.8594 40.7402Z" fill="#422B0D" fill-opacity="1.000000" fill-rule="nonzero"/>
	<path id="Vector" d="M13.1582 28.4141C11.626 28.6934 11.5562 30.9287 13.228 30.9985C16.9194 31.0479 20.4854 29.6714 23.1875 27.1567C24.2183 26.2622 25.0889 25.2007 25.7646 24.0132C26.1685 23.4331 26.0293 22.6367 25.4512 22.2314C24.873 21.8267 24.0791 21.9663 23.6753 22.5459L23.6055 22.6157C20.8755 25.6758 17.1909 27.7227 13.1582 28.4141Z" fill="#422B0D" fill-opacity="1.000000" fill-rule="nonzero"/>
	<path id="Vector" d="M60.3208 22.5459C59.918 21.9663 59.1255 21.8267 58.5483 22.2314C57.9712 22.6367 57.832 23.4331 58.2354 24.0132C58.9097 25.2007 59.7788 26.2627 60.8076 27.1572C63.519 29.6514 67.0713 31.0273 70.7485 30.9995C72.4868 30.9297 72.3477 28.6938 70.8184 28.4146C66.7446 27.7441 63.0391 25.6689 60.3208 22.5459Z" fill="#422B0D" fill-opacity="1.000000" fill-rule="nonzero"/>
</svg>
