<svg width="16.000000" height="16.000000" viewBox="0 0 16 16" fill="none" xmlns="http://www.w3.org/2000/svg" xmlns:xlink="http://www.w3.org/1999/xlink">
	<desc>
			Created with Pixso.
	</desc>
	<defs>
		<clipPath id="clip4_100632">
			<rect width="16.000004" height="16.000004" fill="white" fill-opacity="0"/>
		</clipPath>
	</defs>
	<g clip-path="url(#clip4_100632)">
		<path d="M1.87012 8.51526L1.64111 8.00024L1.86987 7.48547C2.6499 5.73096 4.14404 4.39453 5.97461 3.81494C7.29248 3.39758 8.70703 3.39758 10.0249 3.81494C11.8552 4.39453 13.3496 5.73096 14.1294 7.48547L14.3582 8.00024L14.1294 8.51526C13.3496 10.2698 11.8555 11.606 10.0251 12.1857C8.70703 12.6031 7.29224 12.6031 5.97437 12.1857C4.14404 11.606 2.6499 10.2698 1.87012 8.51526ZM0.499268 6.87634L0.239502 7.46082C0.0869141 7.8042 0.0869141 8.19629 0.239502 8.53967L0.499512 9.12451C1.45361 11.2712 3.28174 12.9064 5.52148 13.6157C7.13403 14.1265 8.86523 14.1265 10.478 13.6157C12.7175 12.9064 14.5459 11.2712 15.5 9.12451L15.76 8.53967C15.9126 8.19629 15.9126 7.8042 15.76 7.46082L15.5002 6.87634C14.5459 4.72937 12.7175 3.09424 10.4775 2.38489C8.86523 1.87427 7.13428 1.87427 5.52173 2.38489C3.28198 3.09424 1.45337 4.72937 0.499268 6.87634ZM9.49976 8.00012C9.49976 8.82861 8.82812 9.50012 7.99976 9.50012C7.17139 9.50012 6.49976 8.82861 6.49976 8.00012C6.49976 7.17175 7.17139 6.50012 7.99976 6.50012C8.82812 6.50012 9.49976 7.17175 9.49976 8.00012ZM10.9998 8.00012C10.9998 9.65698 9.65649 11.0001 7.99976 11.0001C6.34277 11.0001 4.99976 9.65698 4.99976 8.00012C4.99976 6.34326 6.34277 5.00012 7.99976 5.00012C9.65649 5.00012 10.9998 6.34326 10.9998 8.00012Z" fill="#000000" fill-opacity="1.000000" fill-rule="evenodd"/>
	</g>
</svg>
