<svg width="14.000000" height="14.000000" viewBox="0 0 14 14" fill="none" xmlns="http://www.w3.org/2000/svg" xmlns:xlink="http://www.w3.org/1999/xlink">
	<desc>
			Created with Pixso.
	</desc>
	<defs>
		<clipPath id="clip4_69365">
			<rect id="style=regular, keywords=-" width="14.000000" height="14.000000" fill="white" fill-opacity="0"/>
		</clipPath>
	</defs>
	<g clip-path="url(#clip4_69365)">
		<path id="icon" d="M2.65137 1.72363C2.39502 1.46729 1.97949 1.46729 1.72314 1.72363C1.46704 1.97998 1.46704 2.39502 1.72314 2.65137L2.44922 3.37744C1.59082 4.08057 0.897461 4.98047 0.436768 6.0166L0.209473 6.52832C0.0759277 6.82861 0.0759277 7.17188 0.209473 7.47217L0.437012 7.98389C1.27173 9.8623 2.87158 11.293 4.8313 11.9136C6.24243 12.3608 7.75708 12.3608 9.16821 11.9136C9.61304 11.7729 10.0391 11.5903 10.4419 11.3701L11.3481 12.2764C11.6045 12.5327 12.02 12.5327 12.2764 12.2764C12.5327 12.02 12.5327 11.605 12.2764 11.3486L2.65137 1.72363ZM9.46533 10.3936L8.33325 9.26172C7.94263 9.49268 7.48657 9.625 6.99976 9.625C5.55005 9.625 4.37476 8.44971 4.37476 7C4.37476 6.51318 4.50732 6.05762 4.73828 5.6665L3.38281 4.31104C2.63428 4.89697 2.03076 5.66211 1.63623 6.5498L1.43604 7L1.63647 7.45068C2.3186 8.98584 3.62598 10.1553 5.22754 10.6626C6.38086 11.0278 7.61865 11.0278 8.77197 10.6626C9.01001 10.5869 9.24146 10.4971 9.46533 10.3936ZM5.73169 6.66016C5.70264 6.76855 5.68726 6.88232 5.68726 7C5.68726 7.7251 6.2749 8.3125 6.99976 8.3125C7.11743 8.3125 7.23145 8.29736 7.33984 8.26807L5.73169 6.66016ZM7.18311 4.38135L9.61841 6.81689C9.52856 5.51318 8.48682 4.47119 7.18311 4.38135ZM12.3633 7.45068C12.1523 7.92529 11.8821 8.36426 11.5618 8.76025L12.4939 9.69238C12.9246 9.18115 13.2856 8.60693 13.5625 7.98389L13.79 7.47217C13.9236 7.17188 13.9236 6.82861 13.79 6.52832L13.5627 6.0166C12.7278 4.13818 11.1277 2.70752 9.16797 2.08691C7.77148 1.64453 6.27344 1.64014 4.87476 2.07324L5.95874 3.15723C6.89355 2.98877 7.85913 3.04932 8.77173 3.33789C10.3733 3.84521 11.6809 5.01465 12.3633 6.5498L12.5635 7L12.3633 7.45068Z" fill="#ABABAB" fill-opacity="1.000000" fill-rule="evenodd"/>
	</g>
</svg>
