<svg width="28.000000" height="28.000000" viewBox="0 0 28 28" fill="none" xmlns="http://www.w3.org/2000/svg" xmlns:xlink="http://www.w3.org/1999/xlink">
	<desc>
			Created with Pixso.
	</desc>
	<defs>
		<clipPath id="clip2_101201">
			<rect id="style=regular, keywords=-" width="16.000004" height="16.000004" transform="translate(6.000000 6.000000)" fill="white" fill-opacity="0"/>
		</clipPath>
	</defs>
	<g clip-path="url(#clip2_101201)">
		<path id="icon" d="M9.03003 7.96973C8.7373 7.67676 8.26221 7.67676 7.96948 7.96973C7.67651 8.26257 7.67651 8.73743 7.96948 9.03027L8.79907 9.85986C7.81812 10.6632 7.02563 11.6919 6.49927 12.8763L6.2395 13.4608C6.08691 13.8042 6.08691 14.1963 6.2395 14.5397L6.49951 15.1245C7.45361 17.2712 9.28174 18.9064 11.5215 19.6157C13.134 20.1265 14.8652 20.1265 16.478 19.6157C16.9863 19.4547 17.4734 19.2461 17.9338 18.9946L18.9695 20.0303C19.2622 20.3232 19.7373 20.3232 20.03 20.0303C20.323 19.7374 20.323 19.2626 20.03 18.9697L9.03003 7.96973ZM16.8174 17.8783L15.5239 16.5847C15.0771 16.8486 14.5562 17.0001 13.9998 17.0001C12.3428 17.0001 10.9998 15.657 10.9998 14.0001C10.9998 13.4437 11.1511 12.9227 11.4153 12.4761L9.86597 10.927C9.0105 11.5964 8.3208 12.4711 7.86987 13.4855L7.64111 14.0002L7.87012 14.5153C8.6499 16.2698 10.144 17.606 11.9744 18.1857C13.2922 18.6031 14.707 18.6031 16.0251 18.1857C16.2971 18.0996 16.5615 17.9967 16.8174 17.8783ZM12.5505 13.6115C12.5173 13.7355 12.4998 13.8657 12.4998 14.0001C12.4998 14.8286 13.1714 15.5001 13.9998 15.5001C14.134 15.5001 14.2644 15.4824 14.3884 15.4493L12.5505 13.6115ZM14.2092 11.0073L16.9924 13.7906C16.8899 12.3008 15.6992 11.1101 14.2092 11.0073ZM20.1294 14.5153C19.8884 15.0573 19.5793 15.5593 19.2134 16.0115L20.2788 17.0769C20.7708 16.4926 21.1836 15.8367 21.5 15.1245L21.76 14.5397C21.9126 14.1963 21.9126 13.8042 21.76 13.4608L21.5002 12.8763C20.5459 10.7294 18.7175 9.09424 16.4775 8.38489C14.8816 7.87952 13.1697 7.87439 11.5713 8.36938L12.8101 9.60828C13.8784 9.41577 14.9819 9.48462 16.0249 9.81494C17.8552 10.3945 19.3496 11.731 20.1294 13.4855L20.3582 14.0002L20.1294 14.5153Z" fill="#000000" fill-opacity="1.000000" fill-rule="evenodd"/>
	</g>
</svg>
