<svg width="14.000000" height="14.000000" viewBox="0 0 14 14" fill="none" xmlns="http://www.w3.org/2000/svg" xmlns:xlink="http://www.w3.org/1999/xlink">
	<desc>
			Created with Pixso.
	</desc>
	<defs>
		<clipPath id="clip4_69297">
			<rect id="style=regular, keywords=-" width="14.000000" height="14.000000" fill="white" fill-opacity="0"/>
		</clipPath>
	</defs>
	<g clip-path="url(#clip4_69297)">
		<path id="icon" d="M1.63623 7.45068L1.43604 7L1.63623 6.5498C2.31836 5.01416 3.62598 3.84521 5.22803 3.33789C6.38086 2.97266 7.61865 2.97266 8.77148 3.33789C10.3735 3.84521 11.6812 5.01416 12.3633 6.5498L12.5635 7L12.3633 7.45068C11.6807 8.98584 10.3735 10.1548 8.77197 10.6621C7.61865 11.0273 6.38086 11.0273 5.22754 10.6621C3.62598 10.1548 2.31885 8.98584 1.63623 7.45068ZM0.437012 6.0166L0.209473 6.52783C0.0761719 6.82861 0.0761719 7.17139 0.209473 7.47217L0.437012 7.98389C1.27197 9.8623 2.87158 11.293 4.83105 11.9136C6.24219 12.3604 7.75732 12.3604 9.16846 11.9136C11.1279 11.293 12.7275 9.8623 13.5625 7.98389L13.79 7.47217C13.9233 7.17139 13.9233 6.82861 13.79 6.52783L13.5625 6.0166C12.7275 4.1377 11.1279 2.70703 9.16797 2.08643C7.75684 1.63965 6.24268 1.63965 4.83154 2.08643C2.87158 2.70703 1.27197 4.1377 0.437012 6.0166ZM8.3125 7C8.3125 7.72461 7.72461 8.3125 7 8.3125C6.2749 8.3125 5.6875 7.72461 5.6875 7C5.6875 6.2749 6.2749 5.6875 7 5.6875C7.72461 5.6875 8.3125 6.2749 8.3125 7ZM9.625 7C9.625 8.44971 8.44971 9.625 7 9.625C5.5498 9.625 4.375 8.44971 4.375 7C4.375 5.55029 5.5498 4.375 7 4.375C8.44971 4.375 9.625 5.55029 9.625 7Z" fill="#ABABAB" fill-opacity="1.000000" fill-rule="evenodd"/>
	</g>
</svg>
