<svg width="32" height="32" viewBox="0 0 32 32" fill="none" xmlns="http://www.w3.org/2000/svg">
<rect width="32" height="32" rx="16" fill="#625DF5"/>
<path d="M32 16C32 24.8366 24.8366 32 16 32C7.16344 32 0 24.8366 0 16C0 7.16344 7.16344 0 16 0C24.8366 0 32 7.16344 32 16Z" fill="#625DF5"/>
<path d="M9.90501 20H8.79705L12.0016 11.2727H13.0925L16.2971 20H15.1891L12.5811 12.6534H12.513L9.90501 20ZM10.3141 16.5909H14.78V17.5284H10.3141V16.5909ZM17.6564 20V11.2727H22.9235V12.2102H18.7132V14.9375H20.9292C21.5542 14.9375 22.0811 15.0398 22.5101 15.2443C22.9419 15.4489 23.2686 15.7372 23.4902 16.1094C23.7147 16.4815 23.8269 16.9205 23.8269 17.4261C23.8269 17.9318 23.7147 18.3778 23.4902 18.7642C23.2686 19.1506 22.9419 19.4531 22.5101 19.6719C22.0811 19.8906 21.5542 20 20.9292 20H17.6564ZM18.7132 19.0795H20.9292C21.3269 19.0795 21.6635 19 21.9391 18.8409C22.2175 18.679 22.4277 18.4716 22.5698 18.2188C22.7147 17.9631 22.7871 17.6932 22.7871 17.4091C22.7871 16.9915 22.6266 16.6321 22.3056 16.331C21.9846 16.027 21.5257 15.875 20.9292 15.875H18.7132V19.0795Z" fill="#FCFCFC"/>
</svg>
