<svg width="32" height="32" viewBox="0 0 32 32" fill="none" xmlns="http://www.w3.org/2000/svg">
<rect width="32" height="32" rx="10" fill="#E1E1F7"/>
<path fill-rule="evenodd" clip-rule="evenodd" d="M16 9.125C14.3499 9.125 12.9292 10.2897 12.6056 11.9078L11.8316 15.7777C11.6005 16.9329 11.0327 17.9939 10.1997 18.827L9.95744 19.0692C9.82462 19.202 9.75 19.3822 9.75 19.57C9.75 19.8998 9.97763 20.1859 10.299 20.2601L11.3255 20.497C14.4014 21.2068 17.5986 21.2068 20.6745 20.497L21.701 20.2601C22.0224 20.1859 22.25 19.8998 22.25 19.57C22.25 19.3822 22.1754 19.202 22.0426 19.0692L21.8003 18.827C20.9673 17.9939 20.3995 16.9329 20.1684 15.7777L20.084 15.3558C19.9825 14.8481 20.3117 14.3542 20.8195 14.2526C21.3272 14.1511 21.8211 14.4804 21.9226 14.9881L22.007 15.41C22.1654 16.2022 22.5549 16.9299 23.1262 17.5012L23.3684 17.7434C23.8528 18.2278 24.125 18.8849 24.125 19.57C24.125 20.7729 23.2947 21.8166 22.1226 22.0871L21.0961 22.324C20.22 22.5262 19.3349 22.6755 18.4454 22.772C18.2054 23.9022 17.2017 24.7501 16 24.7501C14.7983 24.7501 13.7946 23.9022 13.5546 22.772C12.6651 22.6755 11.78 22.5262 10.9039 22.324L9.87737 22.0871C8.70527 21.8166 7.875 20.7729 7.875 19.57C7.875 18.8849 8.14716 18.2278 8.63161 17.7434L8.87385 17.5012C9.44514 16.9299 9.83455 16.2022 9.993 15.41L10.767 11.54C11.2659 9.04556 13.4561 7.25 16 7.25C16.5235 7.25 17.0331 7.32622 17.5163 7.4694C18.0128 7.61648 18.296 8.13816 18.1489 8.6346C18.0018 9.13103 17.4801 9.41423 16.9837 9.26715C16.6712 9.17457 16.341 9.125 16 9.125Z" fill="#212121"/>
<path fill-rule="evenodd" clip-rule="evenodd" d="M21.625 12.875C23.0057 12.875 24.125 11.7557 24.125 10.375C24.125 8.99429 23.0057 7.875 21.625 7.875C20.2443 7.875 19.125 8.99429 19.125 10.375C19.125 11.7557 20.2443 12.875 21.625 12.875Z" fill="#625DF5"/>
</svg>
